:SAMPLES-PER-SECOND 30
:FULLY-SPECIFIED
:DEGREES
1695
root  -52.7361 39.9063 19.7706 -177.118 -66.0425 171.005
RightUpLeg  2.46161 -18.2507 -13.6466
RightLeg  45.279 -3.92925 -4.55272
RightFoot  -6.20259 -0.335478 6.5291
RightToes  5.82063e-011 0 -3.6325e-017
Spine  12.5985 0.611959 -0.0976363
Spine1  9.96247 2.8072 -9.33415
HEad  -27.7637 6.12423 -4.03293
LeftShoulder1  0.255041 2.76729 -28.4846
LeftArm  -20.4426 -0.165865 -35.8346
LeftForeArm  12.6203 -27.108 -5.15246
LeftHand  -0.15099 3.8483 10.2109
RightShoulder  -0.321747 -4.49782 25.2669
RightArm  17.5518 8.90061 57.2858
RightForeArm  12.78 50.1373 12.5038
RightHand  -0.870967 6.53576 -8.79399
LeftUpLeg  -7.52724 6.19022 -3.94382
LeftLeg  10.8304 17.7628 0.00467132
LeftFoot  0.513962 -0.667675 6.3987
LeftToes  1.54581e-011 7.46816e-011 -4.69922e-011
1696
root  -52.5219 39.9019 20.2854 -179.094 -62.3979 172.659
RightUpLeg  5.2442 -18.3096 -13.7704
RightLeg  42.7605 -3.91561 -4.15683
RightFoot  -6.61363 -0.277379 5.61941
RightToes  5.82063e-011 0 -3.6325e-017
Spine  11.3779 0.840715 1.0492
Spine1  10.8993 3.11376 -8.95384
HEad  -28.4032 6.25479 -4.51715
LeftShoulder1  0.149113 3.07924 -29.0689
LeftArm  -21.0805 -1.13574 -34.7558
LeftForeArm  11.0891 -31.1938 -6.22399
LeftHand  -0.333737 2.14784 11.8289
RightShoulder  -0.366031 -4.64694 24.9788
RightArm  19.0347 8.54958 57.6449
RightForeArm  16.4499 53.1738 13.732
RightHand  -0.889212 6.91974 -8.70275
LeftUpLeg  -7.53334 6.35945 -3.70048
LeftLeg  10.7148 21.1996 0.591158
LeftFoot  0.980672 -0.742991 6.81749
LeftToes  1.54581e-011 7.46816e-011 -4.69922e-011
1697
root  -52.185 39.8955 20.7846 179.184 -58.7632 174.023
RightUpLeg  7.59149 -17.5467 -13.3478
RightLeg  39.4769 -3.91794 -3.73021
RightFoot  -7.78771 -0.218265 5.32397
RightToes  5.82063e-011 0 -3.6325e-017
Spine  11.4098 0.781297 1.50135
Spine1  10.3487 2.7942 -7.98611
HEad  -28.6766 6.92727 -4.99652
LeftShoulder1  0.00207307 3.49681 -29.0774
LeftArm  -23.5869 -0.24945 -34.2756
LeftForeArm  13.8435 -36.1563 -7.37
LeftHand  -0.252762 2.75414 10.8836
RightShoulder  -0.263411 -4.32692 24.7263
RightArm  21.0677 7.69408 57.8826
RightForeArm  17.7713 54.5746 14.4063
RightHand  -0.960797 7.19234 -9.18782
LeftUpLeg  -7.67416 7.02476 -3.03525
LeftLeg  10.6475 24.0802 0.688657
LeftFoot  1.75203 -0.896582 7.70447
LeftToes  1.54581e-011 7.46816e-011 -4.69922e-011
1698
root  -51.7867 39.8867 21.2624 178.096 -55.2325 174.772
RightUpLeg  9.68243 -16.3957 -12.905
RightLeg  35.1012 -3.15362 -2.64312
RightFoot  -8.68008 -0.182604 5.25649
RightToes  5.82063e-011 0 -3.6325e-017
Spine  11.1965 0.707166 1.71924
Spine1  10.2687 2.55484 -7.11841
HEad  -29.0991 7.61745 -5.17676
LeftShoulder1  0.0635695 3.31808 -28.081
LeftArm  -25.5517 1.22053 -34.833
LeftForeArm  15.3349 -40.0517 -8.43266
LeftHand  -0.352554 1.58371 10.6893
RightShoulder  -0.249811 -4.27419 25.0553
RightArm  22.827 7.09672 57.6966
RightForeArm  18.351 54.2922 14.1942
RightHand  -0.897902 7.22519 -8.59111
LeftUpLeg  -7.68733 7.32495 -2.48589
LeftLeg  9.95471 27.0562 0.682847
LeftFoot  2.97357 -1.08233 8.45853
LeftToes  1.54581e-011 7.46816e-011 -4.69922e-011
1699
root  -51.3222 39.8094 21.7864 178.251 -51.8392 174.699
RightUpLeg  10.5004 -14.4949 -12.3411
RightLeg  30.6953 -1.97667 -1.49986
RightFoot  -9.87146 -0.139315 6.14164
RightToes  5.82063e-011 0 -3.6325e-017
Spine  10.3833 0.655105 1.33414
Spine1  10.8189 2.14761 -5.85181
HEad  -29.0703 8.02729 -5.70255
LeftShoulder1  -0.0132475 3.54214 -28.9643
LeftArm  -25.3555 1.29916 -33.8286
LeftForeArm  16.5093 -42.7328 -9.2374
LeftHand  -0.21158 3.22767 10.809
RightShoulder  -0.22957 -4.21768 24.7596
RightArm  24.2143 6.84402 57.5653
RightForeArm  17.0509 52.2615 13.2167
RightHand  -0.881171 7.5051 -8.26458
LeftUpLeg  -8.73769 7.33329 -2.42717
LeftLeg  9.89734 30.2491 1.04666
LeftFoot  4.22503 -1.26411 9.04105
LeftToes  1.54581e-011 7.46816e-011 -4.69922e-011
1700
root  -50.8055 39.7005 22.3353 177.998 -48.592 174.6
RightUpLeg  11.407 -11.6309 -11.4997
RightLeg  26.2051 -2.11837 -1.34218
RightFoot  -13.0842 0.0383893 8.40329
RightToes  5.82063e-011 0 -3.6325e-017
Spine  10.5832 0.326861 1.50659
Spine1  10.6149 1.75075 -5.6928
HEad  -26.4713 6.72579 -5.24005
LeftShoulder1  -0.0711135 3.70669 -28.6919
LeftArm  -24.8294 1.87878 -33.4656
LeftForeArm  17.1794 -44.3553 -9.76592
LeftHand  -0.217708 2.97839 10.0546
RightShoulder  -0.287859 -4.37181 25.7254
RightArm  25.7601 7.0467 56.751
RightForeArm  13.7946 48.1231 11.5184
RightHand  -0.964869 7.7929 -8.8358
LeftUpLeg  -9.33755 7.46638 -2.22213
LeftLeg  9.6884 33.0037 1.29344
LeftFoot  5.45181 -1.43853 9.4992
LeftToes  1.54581e-011 7.46816e-011 -4.69922e-011
1701
root  -50.1782 39.5829 22.8871 177.545 -45.8366 174.505
RightUpLeg  11.9161 -8.89766 -10.598
RightLeg  22.6611 -3.81912 -1.95957
RightFoot  -16.0512 0.27815 9.42541
RightToes  5.82063e-011 0 -3.6325e-017
Spine  10.9397 0.199361 1.73639
Spine1  10.8843 1.59065 -5.38538
HEad  -26.1397 6.16764 -5.6369
LeftShoulder1  0.101518 3.20626 -27.9383
LeftArm  -23.7834 2.32741 -33.9947
LeftForeArm  18.0689 -45.1822 -10.0099
LeftHand  -0.204904 2.96419 9.32558
RightShoulder  -0.472231 -4.89435 27.145
RightArm  26.0949 7.44521 55.3403
RightForeArm  10.2461 42.8551 9.71337
RightHand  -0.988482 7.47423 -9.2476
LeftUpLeg  -9.74815 7.81667 -1.79362
LeftLeg  9.10857 35.5019 1.10237
LeftFoot  6.9642 -1.66477 10.0361
LeftToes  1.54581e-011 7.46816e-011 -4.69922e-011
